<mxfile host="app.diagrams.net" agent="Mozilla/5.0 (Windows NT 10.0; Win64; x64) AppleWebKit/537.36 (KHTML, like Gecko) Chrome/134.0.0.0 Safari/537.36" version="26.1.3">
  <diagram name="Trang-1" id="Y6rkFO3yjIeYfrSkqAxw">
    <mxGraphModel dx="1050" dy="522" grid="1" gridSize="10" guides="1" tooltips="1" connect="1" arrows="1" fold="1" page="1" pageScale="1" pageWidth="827" pageHeight="1169" math="0" shadow="0">
      <root>
        <mxCell id="0" />
        <mxCell id="1" parent="0" />
        <mxCell id="G-fr6BN3jlRedxYo274O-6" value="KhachHang" style="rounded=0;whiteSpace=wrap;html=1;labelBackgroundColor=none;" vertex="1" parent="1">
          <mxGeometry x="136.56" y="170" width="236.88" height="70" as="geometry" />
        </mxCell>
        <mxCell id="G-fr6BN3jlRedxYo274O-7" value="DangKyKH" style="ellipse;whiteSpace=wrap;html=1;labelBackgroundColor=none;" vertex="1" parent="1">
          <mxGeometry x="136.56" y="330" width="238.44" height="80" as="geometry" />
        </mxCell>
        <mxCell id="G-fr6BN3jlRedxYo274O-9" value="CSDL" style="shape=partialRectangle;whiteSpace=wrap;html=1;left=0;right=0;fillColor=none;labelBackgroundColor=none;" vertex="1" parent="1">
          <mxGeometry x="153.28" y="510" width="205" height="60" as="geometry" />
        </mxCell>
        <mxCell id="G-fr6BN3jlRedxYo274O-10" value="" style="verticalLabelPosition=bottom;verticalAlign=top;html=1;strokeWidth=2;shape=mxgraph.arrows2.arrow;dy=0.6;dx=40;notch=0;rotation=90;labelBackgroundColor=none;" vertex="1" parent="1">
          <mxGeometry x="175" y="265" width="85" height="40" as="geometry" />
        </mxCell>
        <mxCell id="G-fr6BN3jlRedxYo274O-12" value="" style="verticalLabelPosition=bottom;verticalAlign=top;html=1;strokeWidth=2;shape=mxgraph.arrows2.arrow;dy=0.6;dx=40;notch=0;rotation=-90;labelBackgroundColor=none;" vertex="1" parent="1">
          <mxGeometry x="260" y="265" width="85" height="40" as="geometry" />
        </mxCell>
        <mxCell id="G-fr6BN3jlRedxYo274O-13" value="" style="verticalLabelPosition=bottom;verticalAlign=top;html=1;strokeWidth=2;shape=mxgraph.arrows2.arrow;dy=0.6;dx=40;notch=0;rotation=90;labelBackgroundColor=none;" vertex="1" parent="1">
          <mxGeometry x="213.74" y="437.51" width="90.94" height="48.44" as="geometry" />
        </mxCell>
        <mxCell id="G-fr6BN3jlRedxYo274O-29" value="D1" style="text;strokeColor=none;fillColor=none;html=1;fontSize=24;fontStyle=1;verticalAlign=middle;align=center;labelBackgroundColor=none;" vertex="1" parent="1">
          <mxGeometry x="136.56" y="280" width="50" height="30" as="geometry" />
        </mxCell>
        <mxCell id="G-fr6BN3jlRedxYo274O-30" value="D2" style="text;strokeColor=none;fillColor=none;html=1;fontSize=24;fontStyle=1;verticalAlign=middle;align=center;labelBackgroundColor=none;" vertex="1" parent="1">
          <mxGeometry x="252.5" y="420" width="100" height="40" as="geometry" />
        </mxCell>
        <mxCell id="G-fr6BN3jlRedxYo274O-31" value="D3" style="text;strokeColor=none;fillColor=none;html=1;fontSize=24;fontStyle=1;verticalAlign=middle;align=center;labelBackgroundColor=none;" vertex="1" parent="1">
          <mxGeometry x="320" y="275" width="66" height="40" as="geometry" />
        </mxCell>
      </root>
    </mxGraphModel>
  </diagram>
</mxfile>
